<svg width="48" height="48" viewBox="0 0 48 48" fill="none" xmlns="http://www.w3.org/2000/svg">
<rect width="48" height="48" rx="6" fill="#31AC9E"/>
<path d="M27.466 19.9875L30.966 16.4875M32.966 14.4875L30.966 16.4875L32.966 14.4875ZM23.356 24.0975C23.8723 24.607 24.2828 25.2136 24.5637 25.8823C24.8447 26.5511 24.9906 27.2688 24.993 27.9942C24.9954 28.7195 24.8544 29.4382 24.5779 30.1089C24.3014 30.7795 23.895 31.3888 23.3821 31.9017C22.8692 32.4146 22.2599 32.821 21.5893 33.0975C20.9187 33.3739 20.2 33.515 19.4746 33.5126C18.7492 33.5101 18.0315 33.3643 17.3628 33.0833C16.694 32.8024 16.0874 32.3919 15.578 31.8755C14.5761 30.8382 14.0217 29.4489 14.0343 28.0068C14.0468 26.5648 14.6252 25.1853 15.645 24.1655C16.6647 23.1458 18.0442 22.5674 19.4863 22.5548C20.9283 22.5423 22.3177 23.0967 23.355 24.0985L23.356 24.0975ZM23.356 24.0975L27.466 19.9875L23.356 24.0975ZM27.466 19.9875L30.466 22.9875L33.966 19.4875L30.966 16.4875L27.466 19.9875Z" stroke="white" stroke-width="2" stroke-linecap="round" stroke-linejoin="round"/>
</svg>
