<svg width="60" height="60" viewBox="0 0 60 60" fill="none" xmlns="http://www.w3.org/2000/svg">
<rect width="60.0004" height="59.9953" rx="12" fill="#31AC9E"/>
<path d="M39.2104 33.8901C38.5742 35.3946 37.5792 36.7203 36.3123 37.7514C35.0454 38.7825 33.5452 39.4875 31.9428 39.8049C30.3405 40.1222 28.6848 40.0422 27.1205 39.5719C25.5563 39.1015 24.131 38.2551 22.9694 37.1067C21.8078 35.9583 20.9452 34.5428 20.457 32.984C19.9689 31.4252 19.87 29.7706 20.169 28.1647C20.468 26.5589 21.1559 25.0507 22.1724 23.7721C23.189 22.4935 24.5033 21.4834 26.0004 20.8301" stroke="white" stroke-width="2" stroke-linecap="round" stroke-linejoin="round"/>
<path d="M40.0005 30C40.0005 28.6868 39.7418 27.3864 39.2393 26.1732C38.7367 24.9599 38.0001 23.8575 37.0716 22.9289C36.143 22.0003 35.0406 21.2638 33.8273 20.7612C32.6141 20.2587 31.3137 20 30.0005 20V30H40.0005Z" stroke="white" stroke-width="2" stroke-linecap="round" stroke-linejoin="round"/>
</svg>
